<?xml version="1.0" encoding="iso-8859-1"?>
<!-- Generator: Adobe Illustrator 19.0.0, SVG Export Plug-In . SVG Version: 6.00 Build 0)  -->
<svg version="1.1" id="Capa_1" xmlns="http://www.w3.org/2000/svg" xmlns:xlink="http://www.w3.org/1999/xlink" x="0px" y="0px"
	 viewBox="0 0 512.006 512.006" style="enable-background:new 0 0 512.006 512.006;" xml:space="preserve">
<path style="fill:#6CC9F1;" d="M398.633,191.341c-18.398-62.038-75.826-107.297-143.833-107.297
	c-82.852,0-150.016,67.165-150.016,150.016c0,0.115,0.004,0.228,0.004,0.343c-2.587-0.207-5.194-0.343-7.834-0.343
	C43.426,234.06,0,277.453,0,330.98c0,51.898,41.031,94.266,92.028,96.798v0.184h301.637c65.355,0,118.335-53.01,118.335-118.366
	C512,245.906,461.682,193.946,398.633,191.341z"/>
<g>
	<circle style="fill:#0094E3;" cx="255.313" cy="233.957" r="149.91"/>
	<circle style="fill:#0094E3;" cx="393.654" cy="309.552" r="118.352"/>
</g>
<path style="fill:#D2EFFA;" d="M280.015,265.971v-79.81c0-15.147-12.22-27.183-27.366-27.183h-0.102
	c-15.147,0-27.528,12.037-27.528,27.183v79.81h-27.49c-10.568,0-16.632,12.039-10.341,20.533l56.069,75.709
	c5.157,6.963,15.58,6.945,20.711-0.036l55.646-75.711c6.247-8.498,0.178-20.495-10.369-20.495L280.015,265.971L280.015,265.971z"/>
<g>
</g>
<g>
</g>
<g>
</g>
<g>
</g>
<g>
</g>
<g>
</g>
<g>
</g>
<g>
</g>
<g>
</g>
<g>
</g>
<g>
</g>
<g>
</g>
<g>
</g>
<g>
</g>
<g>
</g>
</svg>
