<?xml version="1.0" encoding="iso-8859-1"?>
<!-- Generator: Adobe Illustrator 19.0.0, SVG Export Plug-In . SVG Version: 6.00 Build 0)  -->
<svg version="1.1" id="Capa_1" xmlns="http://www.w3.org/2000/svg" xmlns:xlink="http://www.w3.org/1999/xlink" x="0px" y="0px"
	 viewBox="0 0 512 512" style="enable-background:new 0 0 512 512;" xml:space="preserve">
<path style="fill:#333333;" d="M512,256c0,88.628-45.035,166.734-113.476,212.689c-4.18,2.8-8.443,5.496-12.8,8.056
	C347.69,499.148,303.344,512,256,512c-47.762,0-92.453-13.072-130.717-35.85c-3.344-1.975-6.635-4.044-9.874-6.165
	C45.892,424.208,0,345.464,0,256C0,114.615,114.615,0,256,0c47.867,0,92.672,13.134,130.988,36.007
	c5.36,3.197,10.595,6.583,15.684,10.156C468.783,92.453,512,169.179,512,256z"/>
<g>
	<polygon style="fill:#F2F2F2;" points="111.613,153.063 117.031,150.507 117.031,358.526 111.613,361.083 	"/>
	<polygon style="fill:#F2F2F2;" points="142.461,138.503 142.461,346.524 136.64,349.271 136.64,141.25 	"/>
	<polygon style="fill:#F2F2F2;" points="169.231,125.869 169.231,333.889 163.367,336.651 163.367,128.631 	"/>
	<path style="fill:#F2F2F2;" d="M203.91,215.149c0,19.355-7.549,42.958-7.549,61.845v44.084l-6.14,2.896c0,0,0-35.65,0-46.981
		s-7.557-35.883-7.557-49.572s8.973-44.849,8.973-68.46v-43.674l4.886-2.302c0,0,0,34.177,0,50.698S203.91,195.788,203.91,215.149z"
		/>
	<path style="fill:#F2F2F2;" d="M231.295,199.569c0,23.129-7.081,61.371-7.081,76.95v31.415l-6.196,2.925c0,0,0-17.343,0-28.2
		s-8.442-49.572-8.442-71.759c0-22.195,9.914-52.405,9.914-72.234v-36.521l6.601-3.116c0,0,0,29.722,0,45.77
		C226.09,160.854,231.295,176.433,231.295,199.569z"/>
	<path style="fill:#F2F2F2;" d="M262.93,182.573c0,35.408-9.192,95.845-9.192,111.425l-7.499,3.541v-0.007
		c0,0-8.335-66.802-8.335-99.854s9.404-85.13,9.404-108.663v-0.007l7.068-3.328C254.374,119.312,262.93,147.164,262.93,182.573z"/>
	<path style="fill:#F2F2F2;" d="M290.307,171.242c0,54.289-3.69,107.233-3.69,107.233v0.007l-11.316,5.339v-0.007
		c0,0-7.655-58.283-7.655-105.964s6.593-81.759,6.593-101.545l9.745-4.603C283.983,99.475,290.307,116.946,290.307,171.242z"/>
	<path style="fill:#F2F2F2;" d="M320.051,151.413c0,39.658-4.029,113.181-4.029,113.181v0.007l-14.156,6.678
		c-2.585-33.468-5.892-73.126-5.892-101.453s5.786-87.439,5.786-106.517l12.017-5.673
		C313.777,82.012,320.051,111.755,320.051,151.413z"/>
	<path style="fill:#F2F2F2;" d="M349.327,144.332c0,38.709-3.924,106.397-3.924,106.397l-14.518,6.856v-0.007
		c-4.695-43.844-10.035-146.961-0.517-207.773l11.678-5.51C342.047,63.124,349.327,105.615,349.327,144.332z"/>
	<path style="fill:#F2F2F2;" d="M377.654,125.444c0,84.507-4.001,111.949-4.001,111.949l-13.342,6.296c0,0-14.036-113.188,0-208.013
		l10.87-5.135C374.531,56.184,377.654,86.438,377.654,125.444z"/>
	<path style="fill:#F2F2F2;" d="M402.674,15.677v208.02l-14.164,6.685c-10.198-66.753-2.784-178.497-0.566-207.751L402.674,15.677z"
		/>
	<path style="fill:#F2F2F2;" d="M165.031,407.416c-2.393-2.132-5.747-3.751-10.062-4.859c-2.278-0.554-4.629-1.024-7.053-1.411
		c-2.424-0.376-4.796-0.711-7.095-0.993c-2.309-0.272-4.514-0.564-6.614-0.857c-2.09-0.303-3.939-0.669-5.517-1.118
		c-1.588-0.449-2.853-1.003-3.783-1.661c-0.93-0.658-1.39-1.505-1.39-2.529c0-1.191,0.418-2.142,1.254-2.842
		c0.846-0.7,1.891-1.233,3.145-1.599c1.264-0.355,2.612-0.596,4.044-0.7c1.442-0.104,2.759-0.157,3.96-0.157
		c2.759,0,5.319,0.199,7.68,0.606c2.372,0.397,4.462,1.034,6.29,1.881c1.829,0.857,3.344,1.975,4.545,3.354
		c1.191,1.39,1.975,3.041,2.33,4.953l8.088-0.575v-15.977h-6.917c-0.658,0.815-1.306,1.421-1.933,1.818
		c-0.627,0.408-1.567,0.606-2.832,0.606c-0.533,0-1.066-0.063-1.567-0.188c-0.512-0.125-1.097-0.313-1.755-0.575
		c-1.86-0.679-4.169-1.296-6.917-1.849c-2.759-0.554-6.29-0.836-10.606-0.836c-4.075,0-7.555,0.376-10.428,1.118
		c-2.873,0.752-5.245,1.735-7.095,2.978c-1.86,1.233-3.208,2.664-4.044,4.274c-0.846,1.62-1.264,3.323-1.264,5.12
		c0,4.305,1.452,7.617,4.368,9.937c2.905,2.32,7.471,4.054,13.699,5.204c3.114,0.596,6.259,1.045,9.435,1.348
		c3.176,0.293,6.04,0.669,8.579,1.118c2.55,0.449,4.629,1.045,6.248,1.787c1.62,0.742,2.424,1.839,2.424,3.291
		c0,1.369-0.376,2.476-1.118,3.323c-0.752,0.857-1.766,1.515-3.062,1.985c-1.285,0.47-2.779,0.784-4.493,0.951
		c-1.703,0.178-3.49,0.261-5.339,0.261c-6.708,0-12.079-0.972-16.091-2.905c-4.012-1.944-6.259-4.786-6.74-8.537l-8.088,0.387
		v16.865h8.182c0.418-0.721,0.951-1.358,1.62-1.912c0.658-0.554,1.4-0.836,2.247-0.836c1.076,0,2.299,0.282,3.678,0.836
		c1.975,0.763,4.357,1.452,7.147,2.048s6.395,0.888,10.825,0.888c3.72,0,7.147-0.324,10.292-0.982
		c3.145-0.669,5.851-1.63,8.129-2.915c2.278-1.275,4.044-2.873,5.308-4.786c1.254-1.923,1.881-4.138,1.881-6.656
		C168.626,412.442,167.434,409.548,165.031,407.416z"/>
	<path style="fill:#F2F2F2;" d="M244.109,394.919c-1.64-3.177-3.95-5.726-6.917-7.638c-2.968-1.923-6.499-3.291-10.606-4.127
		c-4.096-0.825-8.579-1.243-13.427-1.243c-6.238,0-11.536,0.585-15.914,1.755c-4.368,1.181-7.952,2.873-10.731,5.089
		c-2.79,2.215-4.827,4.921-6.113,8.108c-1.296,3.197-1.933,6.802-1.933,10.804c0,4.43,0.825,8.171,2.466,11.212
		c1.651,3.051,3.96,5.496,6.928,7.356c2.957,1.849,6.478,3.187,10.553,3.992c4.075,0.815,8.537,1.212,13.396,1.212
		c5.925,0,11.065-0.575,15.412-1.724c4.336-1.149,7.952-2.79,10.825-4.921c2.873-2.132,5.016-4.723,6.426-7.795
		c1.4-3.072,2.111-6.52,2.111-10.355C246.585,402.004,245.76,398.096,244.109,394.919z M227.673,415.211
		c-0.637,2.215-1.62,4.012-2.967,5.402c-1.348,1.379-3.093,2.382-5.214,2.999c-2.132,0.616-4.692,0.93-7.68,0.93
		c-2.278,0-4.368-0.272-6.248-0.805c-1.891-0.533-3.49-1.515-4.807-2.967c-1.317-1.452-2.341-3.459-3.062-6.04
		c-0.721-2.581-1.076-5.914-1.076-10c0-5.632,1.39-9.707,4.18-12.246c2.79-2.529,7.053-3.793,12.81-3.793
		c2.215,0,4.253,0.261,6.102,0.794c1.86,0.533,3.448,1.494,4.765,2.873c1.317,1.39,2.341,3.26,3.062,5.622
		c0.711,2.372,1.076,5.402,1.076,9.112C228.613,410.29,228.3,412.996,227.673,415.211z"/>
	<path style="fill:#F2F2F2;" d="M299.656,382.934v5.245c5.329,0,8.004,0.972,8.004,2.936v21.776l-32.298-29.957h-22.131v5.245
		c5.329,0,8.004,0.972,8.004,2.936v31.128c0,1.954-2.675,2.936-8.004,2.936v5.235h25.61v-5.235c-5.329,0-7.993-0.982-7.993-2.936
		v-24.074l35.913,32.246h10.418v-39.299c0-1.964,2.664-2.936,8.004-2.936v-5.245H299.656z"/>
	<path style="fill:#F2F2F2;" d="M376.926,382.934v5.245h2.696c2.152,0,3.239,0.512,3.239,1.526c0,0.303-0.125,0.606-0.366,0.899
		l-11.682,13.228l-10.877-13.354c-0.293-0.345-0.449-0.679-0.449-1.024c0-0.857,0.899-1.275,2.696-1.275h5.308v-5.245h-36.394v5.245
		c1.557,0,2.915,0.136,4.086,0.408c1.17,0.282,2.079,0.784,2.738,1.505l17.889,19.331v12.821c0,1.954-2.999,2.936-8.986,2.936v5.235
		h36.216v-5.235c-5.998,0-8.986-0.982-8.986-2.936v-12.821l18.599-19.393c0.481-0.554,1.358-0.993,2.654-1.306
		c1.285-0.324,2.832-0.481,4.629-0.481v-5.308H376.926z"/>
	<path style="fill:#F2F2F2;" d="M143.329,452.274c-0.575-1.055-1.421-1.891-2.539-2.508c-1.108-0.616-2.466-1.034-4.086-1.264
		c-1.609-0.219-3.438-0.334-5.465-0.334h-20.01v3.093c2.779,0,4.18,0.575,4.18,1.724v17c3.239,2.121,6.531,4.19,9.874,6.165h4.869
		v-3.082c-3.469,0-5.214-0.575-5.214-1.735v-5.956h6.301c2.027,0,3.856-0.157,5.465-0.47c1.62-0.313,2.978-0.826,4.086-1.536
		c1.118-0.721,1.964-1.651,2.539-2.811c0.585-1.149,0.867-2.56,0.867-4.221C144.196,454.687,143.914,453.329,143.329,452.274z
		 M133.82,460.225c-0.909,0.773-2.508,1.16-4.796,1.16h-4.086V452.2h4.086c2.288,0,3.887,0.366,4.796,1.087
		c0.909,0.731,1.358,1.745,1.358,3.051C135.178,458.146,134.729,459.442,133.82,460.225z"/>
	<path style="fill:#F2F2F2;" d="M166.034,451.26v-3.093h-17.941v3.093c2.821,0,4.232,0.575,4.232,1.724v18.348
		c0,1.16-1.411,1.735-4.232,1.735v3.082h17.941v-3.082c-2.779,0-4.18-0.575-4.18-1.735v-18.348
		C161.855,451.835,163.255,451.26,166.034,451.26z"/>
	<path style="fill:#F2F2F2;" d="M199.199,466.432c-0.815,2.017-2.027,3.49-3.647,4.451c-1.609,0.951-3.887,1.432-6.834,1.432
		c-1.212,0-2.372-0.199-3.448-0.585c-1.076-0.387-2.017-0.993-2.821-1.808c-0.794-0.815-1.421-1.87-1.87-3.145
		c-0.46-1.285-0.69-2.811-0.69-4.598c0-3.417,0.752-6.06,2.236-7.931c1.484-1.87,4.002-2.8,7.534-2.8
		c2.445,0,4.378,0.543,5.799,1.63c1.432,1.097,2.372,2.623,2.842,4.577l4.744-0.293v-9.195h-4.598l-1.076,1.902
		c-1.003-0.721-2.372-1.317-4.117-1.776c-1.735-0.46-3.793-0.69-6.175-0.69c-2.288,0-4.451,0.303-6.499,0.899
		c-2.058,0.606-3.866,1.515-5.433,2.727c-1.557,1.223-2.811,2.759-3.73,4.629c-0.92,1.87-1.39,4.075-1.39,6.604
		c0,2.435,0.47,4.545,1.411,6.343c0.94,1.787,2.215,3.281,3.835,4.451c1.609,1.181,3.5,2.058,5.684,2.633
		c2.173,0.575,4.493,0.867,6.969,0.867c2.445,0,4.556-0.261,6.343-0.773c1.787-0.512,3.281-1.212,4.503-2.09
		c1.223-0.878,2.215-1.881,2.968-3.009c0.742-1.128,1.327-2.33,1.735-3.584L199.199,466.432z"/>
	<path style="fill:#F2F2F2;" d="M206.942,448.167v11.525l4.096,0.115c0.188-2.842,0.742-4.848,1.682-6.029s2.32-1.766,4.138-1.766
		h3.239v19.32c0,1.16-1.39,1.735-4.18,1.735v3.082h17.993v-3.082c-2.821,0-4.232-0.575-4.232-1.735v-19.32h3.197
		c1.808,0,3.197,0.585,4.159,1.766c0.951,1.181,1.505,3.187,1.661,6.029l4.086-0.115v-11.525H206.942z"/>
	<path style="fill:#F2F2F2;" d="M268.278,448.167v3.093c1.787,0,3.062,0.136,3.824,0.428c0.773,0.293,1.149,0.721,1.149,1.296
		v11.755c0,1.379-0.125,2.57-0.397,3.563c-0.261,0.993-0.711,1.797-1.337,2.424c-0.627,0.627-1.452,1.097-2.466,1.4
		c-1.014,0.303-2.257,0.449-3.73,0.449c-1.473,0-2.696-0.146-3.668-0.449c-0.972-0.303-1.735-0.773-2.299-1.4
		c-0.564-0.627-0.961-1.431-1.202-2.424c-0.23-0.993-0.345-2.184-0.345-3.563v-11.755c0-0.575,0.366-1.003,1.118-1.296
		c0.752-0.293,2.027-0.428,3.803-0.428v-3.093h-18.641v3.093c2.79,0,4.18,0.575,4.18,1.724v11.755c0,1.86,0.282,3.532,0.846,5.016
		c0.564,1.473,1.452,2.738,2.675,3.762c1.223,1.034,2.821,1.829,4.796,2.393c1.964,0.564,4.368,0.846,7.178,0.846
		c2.759,0,5.057-0.282,6.907-0.846c1.849-0.564,3.323-1.358,4.441-2.393c1.108-1.024,1.902-2.288,2.372-3.762
		c0.47-1.484,0.7-3.156,0.7-5.016v-11.755c0-1.149,1.411-1.724,4.232-1.724v-3.093H268.278z"/>
	<path style="fill:#F2F2F2;" d="M322.361,469.64v1.808c0,0.554-0.136,0.961-0.418,1.223s-0.658,0.397-1.128,0.397
		c-0.439,0-0.805-0.136-1.087-0.397s-0.418-0.679-0.418-1.233v-3.02c0-1.034-0.115-1.933-0.355-2.706
		c-0.23-0.763-0.575-1.411-1.034-1.943c-0.449-0.533-1.003-0.961-1.641-1.306c-0.648-0.334-1.39-0.606-2.236-0.805
		c0.846-0.157,1.661-0.397,2.445-0.721c0.784-0.324,1.484-0.752,2.09-1.275c0.616-0.533,1.108-1.17,1.484-1.912
		c0.376-0.731,0.564-1.599,0.564-2.57c0-1.515-0.345-2.727-1.034-3.636c-0.69-0.92-1.609-1.63-2.748-2.132
		c-1.149-0.502-2.456-0.836-3.918-1.003c-1.473-0.157-2.978-0.24-4.514-0.24h-22.309v3.093c2.79,0,4.18,0.575,4.18,1.735v18.369
		c0,1.16-1.39,1.735-4.18,1.735v3.051h18.923v-3.082c-3.469,0-5.214-0.575-5.214-1.735v-8.286h5.454
		c0.878,0,1.599,0.084,2.163,0.261c0.564,0.178,1.014,0.46,1.358,0.846c0.345,0.397,0.585,0.909,0.731,1.567
		c0.136,0.648,0.209,1.463,0.209,2.445v2.445c0,0.805,0.157,1.567,0.47,2.267c0.313,0.7,0.794,1.317,1.452,1.839
		c0.658,0.533,1.515,0.951,2.56,1.243c1.055,0.303,2.33,0.46,3.824,0.46c1.285,0,2.393-0.136,3.312-0.397
		c0.93-0.261,1.682-0.616,2.257-1.076c0.585-0.46,1.014-1.014,1.296-1.641c0.282-0.637,0.418-1.317,0.418-2.048v-1.62
		L322.361,469.64L322.361,469.64z M309.656,458.961c-0.794,0.616-2.069,0.92-3.824,0.92h-6.019v-7.68h6.019
		c1.787,0,3.062,0.293,3.845,0.878c0.784,0.596,1.181,1.463,1.181,2.623C310.857,457.258,310.46,458.344,309.656,458.961z"/>
	<path style="fill:#F2F2F2;" d="M357.115,465.157c-0.376,4.765-3.03,7.158-7.983,7.158h-7.137v-9.268h3.239
		c1.223,0,2.006,1.452,2.351,4.368h4.033l0.711-11.755h-4.138c-0.282,2.821-1.16,4.221-2.623,4.221h-3.574v-7.868h8.829
		c3.323,0,5.068,1.609,5.256,4.817l4.702-0.188v-8.474h-32.507v3.093c2.79,0,4.18,0.575,4.18,1.724v18.348
		c0,1.16-1.39,1.735-4.18,1.735v3.082h32.507l1.128-10.731L357.115,465.157z"/>
	<path style="fill:#F2F2F2;" d="M396.695,462.597c-1.254-1.254-3.009-2.215-5.256-2.863c-1.191-0.324-2.424-0.606-3.688-0.836
		c-1.264-0.219-2.508-0.418-3.709-0.575c-1.212-0.167-2.361-0.334-3.459-0.512c-1.097-0.178-2.058-0.397-2.884-0.658
		c-0.836-0.261-1.484-0.596-1.975-0.982c-0.481-0.387-0.731-0.888-0.731-1.484c0-0.711,0.219-1.264,0.658-1.682
		c0.439-0.408,0.993-0.721,1.651-0.94c0.658-0.209,1.358-0.355,2.111-0.418c0.752-0.052,1.442-0.094,2.069-0.094
		c1.442,0,2.779,0.125,4.012,0.366c1.233,0.24,2.33,0.606,3.291,1.108c0.951,0.502,1.745,1.16,2.372,1.975
		c0.627,0.815,1.034,1.797,1.223,2.926l4.221-0.345v-9.415h-3.615c-0.345,0.481-0.679,0.836-1.014,1.076
		c-0.324,0.24-0.815,0.355-1.473,0.355c-0.282,0-0.554-0.042-0.825-0.115c-0.261-0.073-0.575-0.188-0.909-0.334
		c-0.972-0.408-2.184-0.773-3.626-1.097c-1.432-0.324-3.281-0.491-5.538-0.491c-2.132,0-3.95,0.219-5.444,0.658
		c-1.505,0.449-2.748,1.024-3.72,1.755c-0.961,0.731-1.672,1.567-2.111,2.529c-0.439,0.951-0.658,1.954-0.658,3.009
		c0,2.539,0.763,4.493,2.278,5.862c1.526,1.369,3.908,2.382,7.168,3.062c1.63,0.355,3.271,0.616,4.932,0.794
		s3.156,0.397,4.483,0.658c1.327,0.261,2.424,0.616,3.26,1.055c0.846,0.439,1.275,1.087,1.275,1.943
		c0,0.805-0.199,1.452-0.585,1.954c-0.397,0.502-0.93,0.888-1.599,1.17c-0.679,0.272-1.463,0.46-2.351,0.564
		c-0.888,0.105-1.829,0.146-2.79,0.146c-3.511,0-6.311-0.564-8.411-1.714c-2.1-1.139-3.271-2.811-3.521-5.026l-4.232,0.23v9.937
		h4.274c0.219-0.418,0.502-0.794,0.846-1.128c0.345-0.324,0.742-0.491,1.181-0.491c0.564,0,1.202,0.167,1.923,0.491
		c1.034,0.46,2.278,0.857,3.73,1.212c1.463,0.345,3.344,0.522,5.663,0.522c0.178,0,0.355,0,0.533-0.01
		c4.357-2.56,8.62-5.256,12.8-8.056c0.031-0.313,0.052-0.637,0.052-0.972C398.576,465.554,397.949,463.851,396.695,462.597z"/>
</g>
<g>
</g>
<g>
</g>
<g>
</g>
<g>
</g>
<g>
</g>
<g>
</g>
<g>
</g>
<g>
</g>
<g>
</g>
<g>
</g>
<g>
</g>
<g>
</g>
<g>
</g>
<g>
</g>
<g>
</g>
</svg>
